<?xml version="1.0" encoding="UTF-8"?> <svg xmlns="http://www.w3.org/2000/svg" width="45" height="33" viewBox="0 0 45 33"> <g fill="#ff3366" fill-rule="evenodd"> <path d="M17.883 27.119h-.003c-.599 0-1.083.46-1.083 1.029 0 .568.487 1.029 1.086 1.029.598 0 1.083-.461 1.083-1.03 0-.567-.485-1.028-1.083-1.028m2.943 1.029c0-1.541-1.321-2.795-2.945-2.795-1.62 0-2.94 1.249-2.946 2.786v.01c.002 1.54 1.322 2.794 2.946 2.794s2.945-1.254 2.945-2.795m9.394 0c0 .568-.486 1.028-1.084 1.028h-6.258C22.38 31.36 20.328 33 17.881 33c-2.51 0-4.604-1.726-5.032-3.992-.869-.26-1.585-.811-1.97-1.545a2.472 2.472 0 0 1-.29-1.161v-6.86c0-.567.484-1.028 1.083-1.028s1.084.46 1.084 1.029v6.859a.52.52 0 0 0 .063.244.81.81 0 0 0 .164.21c.632-2 2.588-3.46 4.898-3.46 2.447 0 4.498 1.64 4.997 3.823h6.258c.598 0 1.084.46 1.084 1.029m10.433.015v-.039c-.013-1.53-1.33-2.771-2.945-2.771-1.624 0-2.945 1.254-2.945 2.795 0 1.54 1.32 2.795 2.945 2.795 1.619 0 2.936-1.246 2.945-2.78m4.342-3.953l-.003.633c-.002.415-.005.886-.005 1.459 0 1.23-.932 2.295-2.246 2.7C42.315 31.272 40.22 33 37.708 33c-2.819 0-5.113-2.176-5.113-4.852s2.294-4.853 5.113-4.853c2.306 0 4.26 1.457 4.895 3.451.136-.13.217-.285.217-.444 0-.576.002-1.05.004-1.468l.003-.634c.005-.853.01-2.022-.003-2.567-.009-.376-.02-.684-.047-.951H26.103c-.389 0-1.3 0-4.087-2.615-.85-.796-2.538-2.492-2.848-3.206-.228-.525.035-1.126.589-1.343.545-.213 1.167.026 1.404.535.147.25 1.029 1.277 2.306 2.483 1.609 1.519 2.464 2.01 2.697 2.089h15.395c-.349-.318-.796-.693-1.37-1.177-.298-.25-.626-.526-.986-.832-.262-.223-.522-.46-.774-.688-.37-.335-.751-.681-1.149-.997l-.996-.795c-4.023-3.215-5.104-4.079-8.496-4.079h-7.483c-.598 0-1.084-.46-1.084-1.029 0-.568.486-1.028 1.084-1.028h7.483c4.183 0 5.854 1.336 9.892 4.562l.992.792c.452.359.86.729 1.254 1.087.25.227.489.442.724.643.357.304.68.576.976.824 2.598 2.185 3.296 2.772 3.366 5.678.013.573.007 1.758.003 2.624m-7.286 2.909h-.002c-.6 0-1.083.46-1.083 1.029 0 .568.486 1.029 1.085 1.029.6 0 1.084-.461 1.084-1.03 0-.567-.485-1.028-1.084-1.028M16.04 19.653c0 .568.485 1.029 1.084 1.029h1.22c.598 0 1.083-.46 1.083-1.029 0-.568-.485-1.029-1.084-1.029h-1.219c-.599 0-1.084.461-1.084 1.03m-9.437 5.084H4.135c-.599 0-1.084.46-1.084 1.029 0 .568.485 1.028 1.084 1.028h2.468c.598 0 1.083-.46 1.083-1.028 0-.568-.485-1.029-1.083-1.029m1.083-2.666c0 .568-.485 1.029-1.083 1.029h-5.52C.486 23.1 0 22.64 0 22.072c0-.568.485-1.029 1.084-1.029h5.519c.598 0 1.083.461 1.083 1.03M14.53 8c1.412-.824 1.89-2.604 1.065-4s-2.643-1.882-4.08-1.1C11.491 1.296 10.15 0 8.5 0 6.85 0 5.51 1.295 5.485 2.9 4.048 2.119 2.23 2.605 1.405 4 .578 5.396 1.057 7.176 2.47 8c-1.412.824-1.89 2.604-1.065 4s2.643 1.882 4.08 1.1C5.509 14.704 6.849 16 8.5 16c1.65 0 2.99-1.295 3.015-2.9 1.437.782 3.255.296 4.08-1.1.826-1.396.348-3.176-1.065-4zM8.5 10.697C6.974 10.697 5.738 9.49 5.738 8S6.974 5.303 8.5 5.303c1.525 0 2.762 1.207 2.762 2.697s-1.237 2.697-2.762 2.697z"></path> </g> </svg> 