<svg xmlns="http://www.w3.org/2000/svg" width="29" height="34" viewBox="0 0 29 34">
    <g fill="none" fill-rule="evenodd">
        <rect width="32" height="27" x="-1.5" y="3.5" stroke="#ff3366" stroke-width="2" rx="5" transform="rotate(-90 14.5 17)"/>
        <rect width="15" height="2" x="7" y="19" fill="#ff3366" rx="1"/>
        <rect width="15" height="2" x="7" y="23" fill="#ff3366" rx="1"/>
        <rect width="15" height="2" x="7" y="27" fill="#ff3366" rx="1"/>
        <path fill="#ff3366" d="M18.824 11c1.13-.618 1.513-1.953.852-3-.66-1.047-2.115-1.411-3.264-.824C16.392 5.97 15.32 5 14 5c-1.32 0-2.393.971-2.412 2.176-1.15-.587-2.604-.223-3.264.824-.66 1.047-.278 2.382.852 3-1.13.618-1.513 1.953-.852 3 .66 1.047 2.115 1.411 3.264.824C11.608 16.03 12.68 17 14 17c1.32 0 2.393-.971 2.412-2.176 1.15.587 2.604.223 3.264-.824.66-1.047.278-2.382-.852-3zM14 13a2 2 0 1 1 0-4 2 2 0 0 1 0 4z"/>
    </g>
</svg>
