<svg xmlns="http://www.w3.org/2000/svg" width="32" height="36" viewBox="0 0 32 36">
    <path fill="#ff3366" fill-rule="evenodd" d="M8 13.179c0 1.258.328 1.388.59 1.49.428.169.769.503.938.925.696 1.738 1.854 3.27 3.265 4.318 1.102.814 2.24 1.264 3.207 1.264.967 0 2.105-.45 3.208-1.264 1.41-1.047 2.57-2.58 3.265-4.318a1.66 1.66 0 0 1 .937-.925c.263-.102.59-.232.59-1.49 0-1.237-.332-1.355-.626-1.46l-.07-.025a4.448 4.448 0 0 1-.993-.368c-.41-.07-.804-.174-1.117-.256-1.476-.387-2.551-2.176-5.194-2.176s-3.718 1.789-5.193 2.176c-.312.082-.707.185-1.118.256a4.448 4.448 0 0 1-.993.368l-.07.026c-.293.104-.626.222-.626 1.459zm5.895-7.884c0 .818.942 1.481 2.104 1.481 1.162 0 2.106-.663 2.106-1.481 0-.82-.944-1.483-2.106-1.483s-2.104.663-2.104 1.483zm-7.58 8.156c0-1.433.409-2.212 1.022-2.674v-.006a2.147 2.147 0 0 1-.128-.762C7.21 5.1 8.591 1.493 14.396.95c.176-.54.825-.951 1.64-.951.819 0 1.47.415 1.643.96 5.742.566 7.113 4.16 7.113 9.049 0 .308-.05.554-.13.762v.006c.615.462 1.022 1.241 1.022 2.674 0 1.939-.683 2.697-1.645 3.083-.84 2.134-2.234 3.931-3.82 5.13-1.358 1.026-2.844 1.63-4.219 1.63-1.374 0-2.861-.604-4.218-1.63-1.587-1.199-2.982-2.996-3.82-5.13C7 16.148 6.316 15.39 6.316 13.45zm20.632 16.633a.436.436 0 0 0-.435-.437H22.33a.437.437 0 0 0-.436.437v1.666c0 .241.196.438.436.438h4.18a.437.437 0 0 0 .436-.438v-1.666zM32 29.085v2.513c0 .788-2.19 2.029-5.56 2.994-2.632.756-5.987 1.347-9.598 1.408v-5.092l2.962-4.04h4.583a.433.433 0 0 0 .388-.247.462.462 0 0 0-.037-.468l-2.023-2.859c.514.213 1.093.432 1.706.633l1.007.303C28.65 25.18 32 25.683 32 29.085zM7.614 26.868a.438.438 0 0 1-.39-.247.462.462 0 0 1 .037-.468l2.026-2.859c-.516.213-1.095.432-1.708.633l-1.007.303C3.352 25.18 0 25.683 0 29.085v2.513c0 .788 2.19 2.029 5.56 2.994h.002c2.632.756 5.985 1.347 9.596 1.408v-5.09l-2.962-4.042H7.614zm8.597-2.134c-2.027 0-3.8-.732-4.843-1.44l4.843 6.353 4.842-6.35c-1.048.705-2.816 1.437-4.842 1.437zm-3.58-10.758c.698 0 1.264-.57 1.264-1.27 0-.703-.566-1.27-1.263-1.27-.699 0-1.264.567-1.264 1.27 0 .7.565 1.27 1.264 1.27zm1.297 3.915a.248.248 0 0 0 .013.269c.423.568 1.156 1.322 2.058 1.322.902 0 1.634-.754 2.06-1.322a.25.25 0 0 0 .014-.27c-.05-.082-.14-.121-.226-.092a5.842 5.842 0 0 1-1.848.305c-.767 0-1.411-.158-1.847-.305-.085-.03-.176.01-.224.093zm4.177-5.185c0-.703.565-1.27 1.263-1.27s1.264.567 1.264 1.27c0 .7-.566 1.27-1.264 1.27-.698 0-1.263-.57-1.263-1.27z"/>
</svg>
